# xmcd CD database file
#
# Track frame offsets:
#	150
#	16621
#	32641
#	55241
#	78633
#	100530
#	116077
#	138336
#	157998
#	182831
#
# Disc length: 2762 seconds
#
# Revision: 1
# Processed by: cddbd v1.5.2PL0 Copyright (c) Steve Scherf et al.
# Submitted via: CDex 1.70beta2
#
DISCID=730ac80a
DTITLE=REBEKKA KARIJORD - WE BECOME OURSELVES
DYEAR=2012
DGENRE=New Age
TTITLE0=PRAYER
TTITLE1=USE MY BODY WHILE ITS STILL YOUNG
TTITLE2=WE BECOME OURSELVES
TTITLE3=OH BROTHER
TTITLE4=YOUR LOVE
TTITLE5=MULTICOLORED HUMMINGBIRD
TTITLE6=SAVE YOURSELF
TTITLE7=YOU MAKE ME REAL
TTITLE8=ODE TO WHAT WAS LOST
TTITLE9=BANDAGES
EXTD=YEAR: 2012
EXTT0=
EXTT1=
EXTT2=
EXTT3=
EXTT4=
EXTT5=
EXTT6=
EXTT7=
EXTT8=
EXTT9=
PLAYORDER=
